<svg width="50" height="50" xmlns="http://www.w3.org/2000/svg">
 <!-- Created with Method Draw - http://github.com/duopixel/Method-Draw/ -->

 <g>
  <title>background</title>
  <rect x="-1" y="-1" width="52" height="52" id="canvas_background" fill="none"/>
  <g id="canvasGrid" width="100%" height="100%" x="0" y="0" overflow="visible" display="none">
   <rect id="svg_3" width="100%" height="100%" x="0" y="0" stroke-width="0" fill="url(#gridpattern)"/>
  </g>
 </g>
 <g>
  <title>Layer 1</title>
  <g y="6" x="4" stroke="null" id="svg_2">
   <svg stroke="null" y="6" x="9" id="svg_1">
    <path stroke="null" id="svg_4" fill="#80B341" d="m25.726,4.972c-4.56,-5.343 -19.316,5.006 -19.197,18.348a0.631,0.631 0 0 1 -0.62,0.62a0.631,0.631 0 0 1 -0.533,-0.305a14.289,14.289 0 0 1 -0.566,-10.501a0.577,0.577 0 0 0 -0.98,-0.566a14.147,14.147 0 0 0 -3.83,9.674a14.147,14.147 0 0 0 14.31,14.31c20.133,-0.456 15.486,-26.814 11.416,-31.58zm186.872,28.512c-2.677,0.38 -4.18,0.272 -4.897,-0.773a6.856,6.856 0 0 1 -0.773,-3.71l0,-18.023l5.19,0a0.827,0.827 0 0 0 0.839,-0.838l0,-1.316a0.827,0.827 0 0 0 -0.838,-0.838l-5.191,0l0,-6.333a0.849,0.849 0 0 0 -0.838,-0.838l-1.35,0a0.838,0.838 0 0 0 -0.837,0.838l0,6.333l-4.07,0a0.827,0.827 0 0 0 -0.838,0.838l0,1.317a0.827,0.827 0 0 0 0.838,0.838l4.07,0l0,18.206a9.076,9.076 0 0 0 1.447,5.572a5.746,5.746 0 0 0 4.81,1.937a9.457,9.457 0 0 0 3.058,-0.348a0.849,0.849 0 0 0 0.544,-0.925l-0.228,-1.252a0.838,0.838 0 0 0 -0.936,-0.685m23.549,-25.498l-1.35,0a0.827,0.827 0 0 0 -0.837,0.838l0,18.587a7.237,7.237 0 0 1 -2.688,4.658a9.24,9.24 0 0 1 -5.68,1.676a5.953,5.953 0 0 1 -4.81,-1.872a9.087,9.087 0 0 1 -1.71,-5.855l0,-17.194a0.838,0.838 0 0 0 -0.837,-0.838l-1.328,0a0.838,0.838 0 0 0 -0.838,0.838l0,17.107c0,3.428 0.849,6.095 2.427,7.934c1.578,1.839 4.005,2.83 7.15,2.83c2.137,0.08 4.258,-0.405 6.148,-1.405c0.8,-0.45 1.533,-1.01 2.177,-1.665l0,1.741a0.838,0.838 0 0 0 0.838,0.838l1.338,0a0.849,0.849 0 0 0 0.838,-0.838l0,-26.542a0.838,0.838 0 0 0 -0.838,-0.838m17.336,25.498c-2.677,0.38 -4.18,0.272 -4.897,-0.773a6.834,6.834 0 0 1 -0.773,-3.71l0,-18.023l5.19,0a0.838,0.838 0 0 0 0.85,-0.838l0,-1.316a0.838,0.838 0 0 0 -0.85,-0.838l-5.19,0l0,-6.333a0.849,0.849 0 0 0 -0.784,-0.838l-1.349,0a0.838,0.838 0 0 0 -0.838,0.838l0,6.333l-4.124,0a0.838,0.838 0 0 0 -0.838,0.838l0,1.317c0,0.463 0.375,0.838 0.838,0.838l4.07,0l0,18.206a9.076,9.076 0 0 0 1.447,5.572a5.746,5.746 0 0 0 4.81,1.937a9.37,9.37 0 0 0 3.058,-0.348a0.849,0.849 0 0 0 0.544,-0.925l-0.228,-1.252a0.827,0.827 0 0 0 -0.936,-0.685m22.929,-8.444a7.857,7.857 0 0 0 -3.09,-2.743a22.396,22.396 0 0 0 -5.442,-1.872a24.562,24.562 0 0 1 -4.832,-1.524a5.713,5.713 0 0 1 -2.176,-1.578a3.863,3.863 0 0 1 -0.588,-2.307c0,-1.264 0.639,-2.443 1.698,-3.134a8.249,8.249 0 0 1 5.017,-1.36a8.456,8.456 0 0 1 5.375,1.61a4.647,4.647 0 0 1 1.938,3.81a0.827,0.827 0 0 0 0.837,0.837l1.35,0a0.838,0.838 0 0 0 0.838,-0.838a7.53,7.53 0 0 0 -2.928,-6.192a11.71,11.71 0 0 0 -7.409,-2.176a11.09,11.09 0 0 0 -6.922,2.057a6.65,6.65 0 0 0 -2.796,5.44a6.53,6.53 0 0 0 2.23,5.192c1.415,1.208 3.788,2.176 7.27,2.894c5.104,1.089 7.618,2.96 7.618,5.757a4.026,4.026 0 0 1 -1.883,3.33a8.63,8.63 0 0 1 -5.256,1.502a9.98,9.98 0 0 1 -5.67,-1.404a4.658,4.658 0 0 1 -2.1,-3.722a0.838,0.838 0 0 0 -0.838,-0.783l-1.328,0a0.838,0.838 0 0 0 -0.838,0.838a7.063,7.063 0 0 0 3.08,5.887a12.689,12.689 0 0 0 7.694,2.177a11.85,11.85 0 0 0 7.247,-2.079a6.812,6.812 0 0 0 2.917,-5.724a7.335,7.335 0 0 0 -1.012,-3.896m25.028,-4.439l-7.41,0l0,-7.814c0,-0.565 -0.459,-1.023 -1.024,-1.023l-0.957,0a1.012,1.012 0 0 0 -1.012,1.023l0,7.813l-7.085,0c-0.559,0 -1.012,0.453 -1.012,1.012l0,0.947a1.012,1.012 0 0 0 1.012,1.023l7.085,0l0,7.792a1.012,1.012 0 0 0 1.012,1.023l0.957,0c0.565,0 1.023,-0.458 1.023,-1.023l0,-7.793l7.411,0a1.012,1.012 0 0 0 1.012,-1.023l0,-0.947c0,-0.559 -0.453,-1.012 -1.012,-1.012"/>
   </svg>
  </g>
 </g>
</svg>