<?xml version="1.0" standalone="no"?><!DOCTYPE svg PUBLIC "-//W3C//DTD SVG 1.1//EN" "http://www.w3.org/Graphics/SVG/1.1/DTD/svg11.dtd"><svg class="icon" width="64px" height="64.00px" viewBox="0 0 1024 1024" version="1.1" xmlns="http://www.w3.org/2000/svg"><path fill="#eeb174" d="M353.187911111111 923.3792000000001h19.6064c18.279466666666668 0 32.9856 14.836266666666667 32.9856 32.9856v0c0 18.279466666666668 14.836266666666667 32.9856 32.9856 32.9856h147.96693333333332c18.279466666666668 0 32.9856-14.836266666666667 32.9856-32.9856v0c0-18.279466666666668 14.836266666666667-32.9856 32.9856-32.9856h19.6064c22.784 0 41.19786666666666-18.4128 41.19786666666666-41.19786666666666v-18.546133333333334c0-22.784-18.4128-41.19786666666666-41.19786666666666-41.19786666666666h-319.248c-22.784 0-41.19786666666666 18.4128-41.19786666666666 41.19786666666666v18.677333333333333c0.13226666666666667 22.651733333333333 18.546133333333334 41.0656 41.32906666666667 41.0656z"  /><path fill="#eeb174" d="M488.304711111111 8.821333333333314c-171.67893333333333 11.789866666666667-310.10773333333333 151.67573333333334-320.5738666666667 323.3546666666666-6.888533333333333 112.59840000000001 40.27093333333333 214.33386666666664 117.89546666666666 282.02453333333335 16.954666666666665 14.836266666666667 26.3616 36.29653333333333 26.3616 58.816 0 43.58186666666666 35.36853333333333 78.95146666666666 78.95146666666666 78.95146666666666h243.7408c43.58186666666666 0 78.95146666666666-35.36853333333333 78.95146666666666-78.95146666666666v0c0-22.784 9.936-44.376533333333334 27.155199999999997-59.47733333333333 72.1952-63.31946666666667 117.76426666666666-156.31146666666666 117.76426666666666-259.9029333333333 0-198.9664-168.2336-358.7232-370.2474666666667-344.8138666666666zM736.5511111111115 330.7178666666667c-5.5648 2.1184-11.393066666666666 3.0474666666666668-17.088 3.0474666666666668-19.736533333333334 0-38.41493333333334-12.0544-45.70133333333333-31.658666666666665-30.60053333333333-82.1312-104.64959999999999-133.26186666666666-183.73333333333332-127.3024-26.758399999999998 2.1184-50.2048-18.017066666666665-52.32533333333333-44.906666666666666-1.9861333333333333-26.89173333333333 18.017066666666665-50.2048 44.906666666666666-52.32533333333333 122.9312-9.4048 236.45546666666667 67.16053333333333 282.42133333333334 190.35733333333334 9.538133333333333 25.3024-3.312 53.38346666666666-28.482133333333334 62.7904z"  /></svg>